<?xml version="1.0" standalone="no"?>
<!DOCTYPE svg PUBLIC "-//W3C//DTD SVG 20010904//EN"
 "http://www.w3.org/TR/2001/REC-SVG-20010904/DTD/svg10.dtd">
<svg version="1.0" xmlns="http://www.w3.org/2000/svg"
 width="216.000000pt" height="233.000000pt" viewBox="0 0 216.000000 233.000000"
 preserveAspectRatio="xMidYMid meet">
<metadata>
Created by potrace 1.10, written by Peter Selinger 2001-2011
</metadata>
<g transform="translate(0.000000,233.000000) scale(0.100000,-0.100000)"
fill="#000000" stroke="none">
<path d="M1140 2050 c-13 -11 -41 -23 -62 -26 -33 -6 -38 -10 -37 -33 2 -23 2
-24 6 -3 4 18 11 22 38 22 19 0 37 5 40 10 4 7 14 2 26 -11 21 -24 40 -19 19
6 -17 21 -5 45 22 45 13 0 43 -11 67 -25 48 -28 63 -31 56 -12 -7 17 -84 47
-121 47 -17 0 -41 -9 -54 -20z"/>
<path d="M872 1990 c-42 -10 -44 -12 -33 -41 l9 -24 7 26 c5 21 13 26 47 28
25 1 44 -3 49 -11 4 -7 11 -10 14 -6 9 9 -24 38 -43 37 -9 -1 -32 -5 -50 -9z"/>
<path d="M768 1958 c-16 -5 -28 -13 -28 -17 0 -5 -10 -6 -23 -4 -27 5 -49 -7
-191 -104 -58 -40 -110 -73 -115 -73 -6 0 -11 -4 -11 -8 0 -4 -18 -19 -39 -32
-37 -23 -61 -60 -40 -60 5 0 9 7 9 15 0 8 7 15 14 15 8 0 27 11 42 25 15 14
34 25 43 25 9 0 22 9 29 20 7 11 19 20 28 20 9 0 25 9 35 21 10 11 23 18 28
14 6 -3 9 0 6 7 -4 9 11 22 40 36 25 12 45 25 45 29 0 15 60 35 85 29 27 -7
57 2 50 15 -3 4 7 15 22 23 31 17 13 20 -29 4z"/>
<path d="M1380 1961 c0 -13 113 -64 168 -76 31 -7 71 -16 87 -20 l30 -7 -27
15 c-14 8 -50 18 -79 22 -29 4 -81 22 -116 40 -35 18 -63 29 -63 26z"/>
<path d="M870 1953 c1 -21 17 -31 44 -26 l28 6 -32 13 c-37 16 -40 17 -40 7z"/>
<path d="M995 1922 c-17 -16 -36 -27 -44 -24 -8 3 -11 0 -7 -6 4 -7 -9 -20
-31 -32 -81 -45 -113 -67 -106 -73 3 -4 -1 -7 -10 -7 -9 0 -17 -4 -17 -10 0
-13 6 -13 31 1 11 5 16 15 13 21 -4 7 -3 8 4 4 7 -4 21 2 33 13 11 10 33 22
47 26 15 3 44 17 64 31 38 24 82 32 92 15 8 -13 -31 -36 -98 -57 l-59 -19 38
-7 c34 -7 43 -5 74 20 47 37 68 48 114 56 20 4 37 11 37 15 0 13 -58 31 -101
31 -30 0 -37 3 -33 15 9 23 -8 18 -41 -13z"/>
<path d="M1186 1925 c-19 -14 -18 -15 15 -14 35 0 87 17 59 18 -8 1 -24 3 -35
6 -11 3 -29 -2 -39 -10z"/>
<path d="M844 1902 c-10 -10 -34 -25 -52 -33 -30 -13 -38 -29 -16 -36 11 -3
100 75 92 82 -2 3 -13 -3 -24 -13z"/>
<path d="M686 1823 c-23 -68 -19 -76 9 -18 27 55 30 65 16 65 -5 0 -16 -21
-25 -47z"/>
<path d="M1676 1845 c4 -8 10 -15 14 -15 4 0 11 -7 14 -16 4 -10 2 -13 -6 -8
-7 5 -26 7 -43 7 -16 -1 -22 1 -12 4 20 5 13 23 -9 23 -8 0 -14 -10 -14 -25 0
-24 3 -26 37 -23 29 2 38 -1 41 -14 2 -13 -1 -16 -12 -12 -10 4 -21 -7 -37
-38 -59 -117 -144 -218 -209 -249 -32 -15 -50 -30 -50 -41 0 -29 -24 -108 -32
-108 -4 0 -8 -4 -8 -8 0 -10 108 -38 116 -30 3 3 -4 15 -16 26 -18 16 -20 24
-11 40 14 27 14 32 -4 32 -17 0 -19 18 -5 40 8 13 11 11 16 -7 4 -13 10 -20
16 -17 5 3 4 12 -3 20 -6 8 -9 17 -6 20 7 8 63 -36 72 -55 4 -9 -2 -8 -16 5
-21 19 -21 19 -18 0 8 -40 159 -103 159 -66 0 6 -6 10 -14 10 -8 0 -28 12 -43
26 -22 20 -23 24 -8 19 81 -29 123 -48 156 -70 21 -14 42 -25 46 -25 14 0 -47
48 -77 60 -17 7 -30 17 -30 22 0 5 -4 6 -10 3 -5 -3 -25 1 -44 10 -19 9 -41
17 -48 19 -19 2 -107 59 -108 69 0 5 5 5 11 2 14 -9 44 19 76 74 l26 45 33
-71 c33 -71 84 -139 84 -112 0 8 -9 20 -21 27 -15 9 -18 19 -13 35 4 12 11 25
16 28 6 4 6 14 -1 28 -9 16 -9 21 0 21 7 0 10 2 8 5 -3 2 -20 1 -37 -4 -35
-10 -44 5 -19 31 32 34 37 45 22 45 -8 0 -15 -4 -15 -9 0 -5 -7 -16 -15 -24
-13 -14 -15 -13 -15 3 1 22 27 59 36 50 4 -4 13 -2 21 4 10 9 13 8 13 -1 0 -8
2 -11 5 -8 3 3 -1 19 -8 37 -7 17 -16 28 -20 24 -4 -3 -7 -1 -7 6 0 7 6 11 13
8 19 -7 29 2 50 46 19 42 12 68 -23 87 -16 9 -18 8 -14 -5z"/>
<path d="M1090 1831 c0 -7 -6 -11 -15 -7 -8 3 -15 2 -15 -3 0 -5 12 -12 28
-17 18 -5 22 -9 11 -11 -9 -2 -20 -22 -26 -46 -6 -23 -14 -51 -19 -62 -7 -19
-7 -19 9 -3 9 9 19 35 23 58 7 41 7 42 41 37 19 -3 65 -20 103 -38 63 -29 71
-36 86 -75 16 -42 16 -45 -1 -64 -29 -32 -10 -34 21 -2 16 16 36 27 44 24 8
-2 0 10 -18 29 -19 18 -41 50 -49 71 -8 21 -20 37 -27 36 -6 -1 -21 3 -33 10
-12 7 -46 17 -75 22 -35 7 -59 18 -70 33 -11 13 -18 17 -18 8z"/>
<path d="M738 1805 c-10 -13 -18 -29 -18 -35 0 -6 -4 -8 -10 -5 -14 8 -14 10
24 -105 19 -58 36 -98 40 -91 4 7 2 18 -4 26 -7 8 -9 26 -6 39 3 13 1 26 -4
28 -6 2 -12 13 -15 26 -2 12 -6 26 -9 30 -3 5 1 30 9 57 8 27 14 49 13 51 -2
1 -11 -8 -20 -21z"/>
<path d="M905 1740 c-19 -20 -24 -30 -14 -30 8 0 23 14 32 30 10 17 16 30 14
30 -2 0 -16 -13 -32 -30z"/>
<path d="M281 1699 c-7 -13 -9 -24 -4 -28 6 -3 15 -15 22 -26 13 -20 13 -20 6
0 -16 45 -17 55 -6 55 6 0 11 5 11 10 0 17 -14 11 -29 -11z"/>
<path d="M249 1639 c-7 -13 -18 -30 -26 -37 -12 -12 -19 -42 -9 -42 8 0 58 92
53 97 -3 2 -11 -6 -18 -18z"/>
<path d="M1041 1639 c0 -9 -8 -30 -16 -45 -8 -16 -15 -41 -15 -55 0 -14 -5
-40 -11 -58 -6 -18 -9 -34 -7 -36 9 -9 60 162 55 186 -2 13 -5 17 -6 8z"/>
<path d="M340 1594 c-25 -9 -57 -27 -72 -41 -16 -15 -31 -22 -39 -18 -7 5 -10
4 -6 -2 3 -5 -3 -17 -14 -27 -12 -10 -19 -19 -16 -22 7 -7 37 7 37 17 0 5 7 9
15 9 8 0 15 3 15 8 0 4 15 17 33 30 35 23 85 29 115 12 9 -5 58 -30 109 -54
l91 -44 48 16 48 16 -32 15 c-18 8 -32 19 -32 24 0 4 -7 1 -16 -7 -18 -19 -49
-22 -38 -4 4 6 3 8 -4 5 -13 -9 -113 14 -107 23 3 4 -8 10 -23 13 -15 3 -36
13 -47 22 -18 15 -17 15 13 0 19 -9 35 -15 36 -13 1 2 7 10 14 19 10 14 6 16
-36 17 -26 1 -67 -6 -92 -14z"/>
<path d="M1431 1553 c12 -15 12 -16 -6 -9 -39 16 -55 18 -55 9 0 -12 60 -31
77 -26 10 4 10 9 0 24 -6 10 -16 19 -21 19 -4 0 -2 -8 5 -17z"/>
<path d="M1708 1561 c7 -4 15 -17 16 -27 2 -10 10 -20 19 -22 15 -3 15 -1 -1
27 -9 17 -24 31 -32 31 -12 0 -12 -2 -2 -9z"/>
<path d="M1310 1555 c0 -3 9 -14 21 -26 26 -26 39 -16 14 11 -17 19 -35 26
-35 15z"/>
<path d="M158 1498 c-9 -14 -30 -30 -46 -37 -17 -7 -33 -22 -36 -34 -3 -11 1
-73 9 -136 8 -64 15 -132 15 -152 0 -20 11 -61 25 -91 14 -30 35 -97 48 -148
19 -72 32 -102 55 -128 18 -18 48 -65 69 -104 30 -57 54 -85 120 -142 l83 -70
0 -58 c0 -73 22 -129 61 -152 28 -17 36 -17 199 4 151 19 172 20 185 6 8 -8
15 -20 15 -26 0 -13 57 -5 111 17 31 12 39 12 65 -2 16 -8 41 -15 55 -15 39 0
220 61 213 72 -4 5 -10 5 -17 -1 -7 -5 -33 -8 -59 -8 -25 1 -44 -1 -42 -5 3
-4 -8 -10 -23 -13 -15 -4 -37 -10 -48 -15 -14 -5 -28 -3 -40 6 -24 18 -58 18
-93 1 -48 -24 -108 -21 -134 5 -13 13 -22 26 -21 30 5 13 -18 9 -33 -6 -8 -9
-46 -16 -101 -20 -49 -4 -113 -10 -144 -14 -66 -9 -96 6 -92 48 2 23 2 23 -6
5 -10 -22 -14 -11 -12 35 1 23 0 23 -9 5 -8 -15 -9 -9 -8 30 1 28 -3 61 -9 75
-6 14 -8 29 -5 34 3 5 0 6 -6 2 -19 -12 -25 50 -7 78 16 24 16 26 1 26 -9 0
-16 7 -16 16 0 10 6 13 18 10 12 -4 26 2 39 16 32 36 36 59 13 75 -11 8 -20
25 -20 38 0 21 3 23 34 18 41 -6 53 9 32 39 -24 34 -19 44 9 18 17 -16 28 -20
37 -13 7 6 27 14 43 18 17 4 24 10 17 12 -7 3 -18 17 -23 31 -7 19 -12 23 -18
13 -6 -10 -10 -9 -14 3 -4 9 -2 16 3 16 5 0 7 8 3 18 -5 15 -4 15 9 -2 13 -17
16 -14 41 40 15 33 51 91 80 129 46 61 57 71 92 76 77 12 146 29 166 39 15 9
26 7 49 -10 l29 -21 -40 -62 c-38 -58 -43 -62 -87 -69 -26 -3 -81 -7 -123 -7
-81 -1 -129 -21 -99 -41 10 -6 16 -6 18 3 3 12 122 14 170 2 12 -3 22 -1 22 5
0 5 12 13 28 16 15 4 42 20 60 37 17 17 32 27 32 22 0 -5 6 0 14 10 8 11 12
24 9 28 -3 5 1 20 8 34 9 16 10 27 3 31 -6 4 -13 17 -16 29 -5 20 -3 21 38 18
24 -2 48 -6 54 -10 14 -9 12 -25 -3 -20 -7 3 -18 -8 -26 -26 -8 -17 -22 -34
-32 -36 -11 -3 -19 -9 -19 -14 0 -5 8 -5 17 -2 17 7 17 5 0 -21 -10 -15 -15
-31 -11 -34 4 -4 9 -2 11 5 2 6 13 22 24 34 11 13 37 51 56 84 20 33 43 68 51
78 22 25 9 31 -27 12 -17 -9 -73 -25 -124 -35 -50 -11 -121 -29 -155 -40 -35
-11 -82 -22 -105 -25 -29 -3 -47 -12 -57 -27 -8 -13 -27 -37 -42 -54 -16 -17
-28 -36 -28 -42 0 -6 -6 -15 -13 -19 -8 -4 -22 -23 -32 -40 -13 -23 -21 -29
-27 -20 -12 18 -10 27 7 27 8 0 15 7 15 15 0 8 13 29 29 48 17 18 46 69 66
113 l36 79 24 -30 c13 -16 27 -26 31 -22 4 4 2 7 -4 7 -7 0 -12 6 -12 14 0 8
-6 16 -12 19 -10 4 -10 7 0 18 6 7 12 20 12 29 0 10 17 25 41 35 41 19 84 66
77 86 -2 7 -16 1 -33 -14 -17 -13 -45 -28 -63 -32 -24 -5 -34 -13 -38 -33 -12
-50 -34 -82 -73 -106 -38 -24 -38 -25 -33 -75 4 -47 3 -51 -22 -62 -29 -13
-57 -66 -77 -143 -9 -34 -29 -67 -66 -110 -31 -36 -53 -70 -53 -84 0 -15 -4
-21 -12 -16 -8 5 -9 2 -3 -12 13 -31 8 -54 -18 -78 -18 -17 -23 -30 -20 -49 3
-17 -2 -33 -16 -48 l-21 -23 -30 33 c-17 18 -28 36 -25 41 3 5 1 11 -4 15 -6
3 -8 12 -5 19 7 17 -45 235 -60 254 -6 7 -19 22 -28 33 -10 10 -18 24 -18 29
0 6 -7 10 -17 10 -15 0 -15 -1 0 -18 10 -10 17 -23 17 -29 0 -16 36 -53 45
-45 5 4 5 -1 2 -10 -7 -19 7 -81 27 -118 17 -31 27 -110 15 -110 -5 0 -12 0
-16 0 -4 0 -8 5 -9 12 -4 31 -33 85 -56 107 -14 14 -24 32 -21 40 4 14 4 14
-6 1 -6 -8 -11 -13 -12 -10 0 3 -3 14 -5 25 -3 11 -7 42 -10 69 -5 55 -13 74
-24 56 -5 -8 -9 -5 -13 9 -4 15 0 21 11 21 15 1 15 2 0 14 -19 14 -23 52 -8
76 11 17 11 16 34 -32 9 -20 21 -40 26 -43 16 -10 11 22 -5 39 -8 8 -15 22
-15 30 0 9 -4 16 -9 16 -8 0 -23 31 -24 50 -1 14 -30 31 -44 26 -13 -5 -11
-10 11 -31 27 -25 30 -45 9 -52 -7 -3 -10 5 -7 19 4 22 4 22 -7 -2 -11 -24
-11 -24 -19 -5 -4 11 -3 23 2 26 6 4 4 12 -4 20 -7 8 -13 32 -14 54 0 22 -4
86 -9 142 l-8 103 42 40 c23 23 41 46 39 52 -2 6 -11 0 -20 -14z"/>
<path d="M764 1507 c-2 -7 -25 -24 -49 -37 -25 -14 -45 -28 -45 -32 0 -5 -8
-8 -18 -8 -27 0 -33 -10 -17 -27 8 -8 19 -22 25 -31 8 -15 11 -15 20 -2 15 22
12 30 -10 30 -11 0 -20 5 -20 11 0 6 10 9 23 7 16 -2 34 9 65 41 23 25 42 48
42 53 0 13 -10 9 -16 -5z"/>
<path d="M1777 1513 c-19 -18 -4 -31 38 -31 26 -1 43 3 40 8 -3 5 -12 7 -21 3
-8 -3 -23 2 -33 11 -10 9 -21 13 -24 9z"/>
<path d="M1260 1476 c0 -20 57 -66 81 -66 11 0 17 5 14 10 -3 6 -13 10 -21 10
-9 0 -12 5 -8 12 5 7 2 9 -9 5 -11 -4 -14 -2 -11 8 6 15 34 9 47 -9 5 -8 10
-6 16 4 8 11 3 17 -21 27 -41 18 -88 17 -88 -1z"/>
<path d="M1902 1469 c-13 -10 -41 -23 -62 -29 -31 -8 -37 -14 -33 -30 3 -11 0
-21 -6 -21 -6 -1 -17 -2 -23 -3 -26 -2 -18 -34 16 -59 19 -15 40 -27 46 -27 7
0 23 -9 37 -20 28 -22 43 -20 25 3 -9 10 -8 17 1 26 10 11 8 12 -11 6 -16 -4
-22 -3 -20 7 2 7 -7 14 -20 16 -25 4 -48 37 -32 47 5 3 10 1 10 -5 0 -6 7 -4
16 5 9 9 23 14 30 11 8 -3 14 -1 14 5 0 7 -10 9 -25 5 -14 -4 -25 -2 -25 3 0
13 53 21 68 9 9 -8 12 -5 12 9 0 10 5 24 12 31 22 22 -5 32 -30 11z"/>
<path d="M1765 1439 c-4 -17 -4 -33 -1 -36 3 -4 6 1 6 11 0 9 7 19 15 22 19 8
20 34 1 34 -8 0 -17 -14 -21 -31z"/>
<path d="M495 1440 c10 -11 30 -20 44 -19 25 0 25 1 5 9 -12 5 -25 13 -29 19
-3 6 -13 11 -22 11 -14 0 -14 -3 2 -20z"/>
<path d="M363 1417 c4 -10 7 -21 7 -23 0 -2 7 -4 15 -4 8 0 15 -4 15 -10 0 -5
12 -10 28 -9 24 0 25 1 7 9 -11 5 -14 9 -7 9 7 1 11 5 8 10 -4 5 -14 8 -24 6
-9 -1 -26 5 -36 14 -18 15 -19 15 -13 -2z"/>
<path d="M1280 1386 c0 -17 7 -26 25 -30 14 -4 25 -11 25 -17 0 -6 4 -7 10 -4
12 8 -16 52 -41 66 -16 8 -19 6 -19 -15z"/>
<path d="M1916 1375 c5 -19 2 -25 -10 -25 -9 0 -16 -5 -16 -11 0 -6 7 -8 16
-5 13 5 15 1 12 -17 -3 -17 2 -28 15 -36 10 -7 21 -11 22 -9 7 7 -28 128 -36
128 -5 0 -7 -11 -3 -25z"/>
<path d="M287 1355 c10 -13 24 -22 31 -20 8 3 21 5 30 5 15 1 15 2 -1 11 -10
6 -21 8 -24 5 -3 -3 -12 1 -20 9 -24 24 -35 17 -16 -10z"/>
<path d="M516 1362 c-3 -6 5 -13 19 -16 16 -4 40 -30 70 -75 25 -38 57 -76 70
-85 l25 -16 -6 37 c-17 102 -22 126 -23 105 0 -13 -5 -20 -11 -17 -6 3 -7 -1
-4 -9 3 -9 3 -24 0 -33 -6 -14 -12 -8 -33 26 -30 50 -62 85 -70 77 -4 -3 -12
-1 -19 5 -7 6 -14 6 -18 1z"/>
<path d="M1681 1313 c9 -10 9 -12 -2 -8 -8 3 -23 -1 -34 -9 -18 -13 -17 -14
19 -6 50 11 65 26 32 32 -21 4 -24 3 -15 -9z"/>
<path d="M232 1293 c-9 -3 -7 -12 8 -30 11 -14 20 -32 20 -39 0 -8 7 -14 15
-14 8 0 15 5 15 10 0 6 -4 10 -9 10 -5 0 -12 13 -16 30 -7 33 -14 40 -33 33z"/>
<path d="M526 1291 c-3 -5 -8 -29 -11 -52 -7 -60 -38 -223 -52 -271 -5 -21 13
-24 31 -5 14 13 14 13 19 107 3 36 8 93 12 127 7 56 9 61 26 52 10 -5 16 -15
14 -22 -6 -15 70 -105 81 -94 4 4 -9 24 -29 45 -20 20 -36 39 -36 42 1 3 -7
22 -17 43 -18 37 -28 45 -38 28z"/>
<path d="M1330 1288 c0 -17 40 -73 62 -87 33 -21 20 12 -22 57 -22 22 -40 36
-40 30z"/>
<path d="M1596 1265 c5 -13 57 -38 104 -51 37 -10 23 0 -47 34 -34 16 -59 24
-57 17z"/>
<path d="M320 1242 c0 -25 43 -73 57 -64 8 5 1 19 -23 44 -25 27 -34 33 -34
20z"/>
<path d="M1765 1220 c-19 -21 -151 -65 -221 -73 -37 -4 -44 -2 -63 24 -22 30
-45 37 -56 19 -4 -6 -2 -9 3 -8 5 2 28 -14 50 -34 23 -21 46 -38 51 -38 14 0
33 -38 26 -50 -3 -5 -1 -11 5 -15 12 -8 13 10 1 52 -9 31 -9 32 22 28 17 -2
37 1 44 6 6 6 21 8 33 4 13 -4 22 -1 26 9 3 9 14 16 24 16 10 0 27 11 38 25
29 37 35 31 28 -25 -4 -32 -3 -50 4 -50 5 0 10 5 10 12 0 6 7 19 16 29 13 14
13 20 2 38 -7 12 -16 21 -20 21 -4 0 -5 7 -2 15 8 21 1 19 -21 -5z"/>
<path d="M1908 1218 c7 -7 12 -22 12 -34 0 -20 38 -74 53 -74 2 0 8 7 11 16 4
12 2 15 -9 10 -9 -3 -15 0 -15 9 0 8 -4 15 -10 15 -5 0 -10 8 -10 18 -1 19
-23 52 -36 52 -4 0 -3 -5 4 -12z"/>
<path d="M255 1107 c5 -27 44 -97 69 -123 6 -7 25 -35 41 -63 30 -50 59 -68
53 -32 -2 10 5 28 15 39 18 20 18 20 -11 27 -17 3 -33 13 -36 21 -3 8 -12 14
-21 14 -8 0 -15 3 -15 8 0 4 -17 25 -38 47 -20 22 -43 51 -50 65 l-12 25 5
-28z"/>
<path d="M1461 1103 c-12 -14 -12 -15 0 -11 9 3 20 -8 29 -29 l15 -33 12 25
c10 22 9 25 -5 23 -9 -2 -17 2 -17 9 0 23 -19 32 -34 16z"/>
<path d="M1325 1093 c-56 -13 -149 -52 -142 -59 2 -2 46 8 98 23 52 14 109 28
126 30 36 6 35 24 0 22 -12 -1 -49 -8 -82 -16z"/>
<path d="M1638 1077 c-8 -17 -19 -48 -23 -67 -4 -19 -12 -41 -17 -47 -11 -14
-7 -55 23 -211 22 -119 25 -238 7 -245 -7 -2 -10 -8 -6 -12 4 -4 14 0 23 8 10
11 25 14 44 11 26 -5 30 -3 35 22 9 41 10 165 2 194 -25 89 -51 160 -58 160
-13 0 -10 -19 18 -99 26 -75 27 -91 8 -188 -5 -26 -3 -33 9 -33 10 0 13 -6 10
-20 -6 -22 -33 -28 -33 -7 0 8 -4 7 -11 -3 -8 -11 -9 0 -5 43 3 39 0 72 -10
100 -9 23 -18 92 -21 154 -5 89 -2 125 12 182 15 55 23 71 37 71 10 0 18 5 18
10 0 6 -10 10 -23 10 -16 0 -28 -10 -39 -33z"/>
<path d="M1994 1096 c-3 -8 -2 -21 2 -28 9 -13 10 -17 13 -53 2 -19 2 -19 12
-2 12 20 4 83 -11 92 -6 4 -13 -1 -16 -9z"/>
<path d="M1748 1084 c-5 -4 -8 -28 -8 -53 l0 -46 53 -1 c34 -1 45 1 32 7 -11
4 -30 8 -42 8 -19 1 -22 7 -25 47 -2 25 -6 42 -10 38z"/>
<path d="M1860 990 c-10 -7 9 -10 62 -10 42 0 80 -4 83 -10 3 -5 -5 -22 -19
-37 -15 -15 -26 -32 -26 -38 0 -9 -14 -28 -60 -82 -5 -7 -10 -19 -10 -28 0 -8
-4 -15 -10 -15 -5 0 -10 -7 -10 -15 0 -9 -6 -26 -14 -38 -8 -12 -24 -51 -37
-87 -25 -77 -36 -91 -50 -70 -9 12 -10 12 -5 -3 4 -12 -1 -21 -17 -27 -33 -13
3 -12 42 1 19 7 31 18 31 28 0 35 41 137 81 201 22 36 45 74 52 85 7 10 29 43
50 72 20 29 37 58 37 65 0 9 -3 9 -10 -2 -9 -13 -12 -13 -23 0 -14 17 -123 25
-147 10z"/>
<path d="M749 988 c0 -2 -2 -11 -4 -20 -2 -10 -13 -29 -24 -44 -29 -37 -27
-51 9 -50 16 1 30 5 30 10 0 4 6 6 13 3 23 -9 212 37 223 54 12 20 -5 22 -41
5 -19 -10 -54 -19 -76 -22 -22 -3 -51 -9 -64 -14 -19 -7 -23 -6 -19 5 3 8 13
16 22 18 10 3 4 4 -12 4 -15 -1 -31 -7 -33 -14 -12 -30 -25 -11 -19 27 3 22 4
40 1 40 -3 0 -5 -1 -6 -2z"/>
<path d="M1432 948 c7 -13 13 -24 13 -24 0 -1 10 -5 23 -8 13 -5 22 -3 22 3 0
6 -7 11 -15 11 -8 0 -20 9 -27 20 -18 28 -31 25 -16 -2z"/>
<path d="M1705 941 c-3 -6 -11 -9 -16 -6 -5 4 -9 -1 -9 -9 0 -21 29 -21 37 -1
7 19 -2 31 -12 16z"/>
<path d="M420 792 c0 -10 9 -25 20 -35 11 -9 17 -23 14 -32 -4 -8 -2 -15 4
-15 20 0 21 31 2 47 -11 10 -20 25 -20 35 0 10 -4 18 -10 18 -5 0 -10 -8 -10
-18z"/>
<path d="M1087 797 c82 -46 122 -73 146 -100 15 -16 30 -27 34 -23 10 9 -58
76 -84 82 -13 4 -23 10 -23 15 0 5 -7 9 -16 9 -8 0 -22 7 -30 15 -9 8 -23 15
-32 15 -13 0 -12 -3 5 -13z"/>
<path d="M870 621 l-25 -8 30 -13 c17 -7 70 -30 118 -51 100 -44 103 -45 111
-23 4 12 2 15 -9 10 -8 -3 -30 3 -47 14 -18 10 -55 26 -83 35 -84 27 -82 26
-60 35 25 11 -1 11 -35 1z"/>
<path d="M1111 508 c-12 -20 -11 -24 10 -41 13 -10 35 -28 49 -40 64 -56 298
-109 344 -78 31 22 35 30 42 93 6 56 22 77 46 61 7 -3 8 -1 4 5 -9 15 -53 15
-62 0 -4 -6 -9 -36 -11 -67 -3 -31 -6 -57 -8 -59 -2 -2 -38 -8 -81 -13 -81
-10 -140 -5 -115 11 16 9 -5 17 -52 19 -59 2 -162 79 -151 113 7 24 2 23 -15
-4z"/>
<path d="M1047 473 c-13 -12 -7 -21 24 -33 24 -10 32 -10 42 0 8 9 8 11 1 7
-7 -4 -24 -1 -39 7 -17 9 -22 16 -13 19 7 3 8 6 2 6 -6 1 -14 -2 -17 -6z"/>
</g>
</svg>
